<svg width="32" height="32" viewBox="0 0 32 32" fill="none" xmlns="http://www.w3.org/2000/svg">
<path fill-rule="evenodd" clip-rule="evenodd" d="M9.64927 19.795C9.59585 19.7447 9.54787 19.6977 9.50552 19.655C9.52086 19.5968 9.53891 19.5321 9.55999 19.4618C9.66116 19.1243 9.8296 18.6653 10.0967 18.1819C10.6303 17.216 11.5329 16.1907 13.0613 15.7812C14.5898 15.3716 15.884 15.8082 16.8291 16.3779C17.3021 16.6631 17.6775 16.9763 17.9339 17.218C17.9873 17.2684 18.0353 17.3154 18.0776 17.3581C18.0623 17.4162 18.0443 17.4809 18.0232 17.5513C17.922 17.8887 17.7536 18.3478 17.4865 18.8312C16.9528 19.7971 16.0503 20.8224 14.5218 21.2319C12.9934 21.6415 11.6991 21.2048 10.7541 20.6352C10.281 20.35 9.90563 20.0367 9.64927 19.795ZM12.8226 18.1743C12.7187 17.7863 12.3199 17.5561 11.9319 17.66C11.5439 17.764 11.3137 18.1628 11.4177 18.5508C11.7454 19.774 13.0204 20.4488 14.2255 20.1259C15.4306 19.803 16.1974 18.5811 15.8696 17.3579C15.7657 16.9699 15.3669 16.7396 14.9789 16.8436C14.5909 16.9476 14.3607 17.3464 14.4646 17.7343C14.5717 18.1338 14.3268 18.5929 13.8491 18.7209C13.3713 18.8489 12.9297 18.5738 12.8226 18.1743Z" fill="white"/>
<path fill-rule="evenodd" clip-rule="evenodd" d="M5.3287 8.81176C3.61919 9.26982 2.60468 11.027 3.06275 12.7365L7.42738 29.0255C7.88544 30.735 9.64261 31.7495 11.3521 31.2915L22.0212 28.4327C23.7307 27.9746 24.7452 26.2175 24.2872 24.508L19.9225 8.21894C19.4645 6.50942 17.7073 5.49492 15.9978 5.95298L5.3287 8.81176ZM19.435 16.688C19.435 16.688 19.4354 16.6885 18.8699 17.1458C19.5883 17.2591 19.5882 17.2598 19.5882 17.2598L19.5878 17.2623L19.587 17.2668L19.5848 17.2801C19.583 17.2908 19.5804 17.3051 19.5771 17.3228C19.5705 17.3583 19.5607 17.4075 19.5472 17.4688C19.5203 17.5912 19.4784 17.7624 19.4165 17.9689C19.2931 18.3804 19.0881 18.94 18.7596 19.5346C18.102 20.7249 16.9247 22.0939 14.8983 22.6369C12.8719 23.1799 11.1678 22.5829 10.0032 21.8809C9.42136 21.5302 8.96407 21.1481 8.65147 20.8534C8.49462 20.7055 8.37267 20.5782 8.28815 20.4856C8.24584 20.4393 8.2128 20.4016 8.18932 20.3742C8.17758 20.3605 8.16822 20.3494 8.16129 20.341L8.1527 20.3306L8.14978 20.3271L8.14819 20.3251C8.14819 20.3251 8.14777 20.3246 8.71327 19.8673C7.99487 19.754 7.99498 19.7533 7.99498 19.7533L7.99538 19.7508L7.99612 19.7463L7.99836 19.733C8.0002 19.7223 8.00274 19.708 8.00606 19.6902C8.01269 19.6548 8.02244 19.6056 8.03592 19.5443C8.06285 19.4219 8.1048 19.2507 8.16669 19.0442C8.29005 18.6326 8.49503 18.0731 8.82354 17.4785C9.48112 16.2882 10.6585 14.9191 12.6849 14.3762C14.7112 13.8332 16.4154 14.4302 17.58 15.1322C18.1618 15.4829 18.6191 15.865 18.9317 16.1597C19.0885 16.3076 19.2105 16.4349 19.295 16.5274C19.3373 16.5738 19.3704 16.6115 19.3938 16.6389C19.4056 16.6526 19.4149 16.6637 19.4219 16.6721L19.4305 16.6824L19.4334 16.686L19.4345 16.6874L19.435 16.688ZM18.8699 17.1458L19.435 16.688C19.5644 16.848 19.6202 17.0565 19.5882 17.2598L18.8699 17.1458ZM7.99498 19.7533L8.71327 19.8673L8.14819 20.3251C8.01879 20.1651 7.96292 19.9566 7.99498 19.7533Z" fill="white"/>
<path fill-rule="evenodd" clip-rule="evenodd" d="M12.0777 2.97448C12.5358 1.26497 14.2929 0.250465 16.0024 0.708529L26.6715 3.5673C28.3811 4.02537 29.3956 5.78254 28.9375 7.49205L26.2251 17.6148C25.9844 18.5132 24.7096 18.5132 24.4689 17.6148L21.6824 7.21538C21.0716 4.93603 18.7287 3.58335 16.4494 4.19411L12.9084 5.1429C12.2324 5.32403 11.6139 4.70547 11.795 4.0295L12.0777 2.97448ZM25.4292 6.03468C25.5215 5.90871 25.7673 5.97458 25.7843 6.12982C25.8041 6.31133 25.8334 6.49193 25.8705 6.66889C25.9681 7.13584 26.2133 7.56056 26.5689 7.87859C26.7036 7.9991 26.8453 8.11479 26.9926 8.2227C27.1186 8.31502 27.0527 8.56083 26.8974 8.57779C26.716 8.59763 26.5354 8.62695 26.3584 8.66395C25.8915 8.7616 25.4667 9.00681 25.1487 9.36238C25.0282 9.49712 24.9125 9.63885 24.8046 9.78611C24.7123 9.91207 24.4665 9.8462 24.4495 9.69096C24.4297 9.50948 24.4003 9.3289 24.3633 9.15196C24.2657 8.68502 24.0205 8.26029 23.6649 7.94226C23.5302 7.82173 23.3884 7.70603 23.2412 7.59809C23.1152 7.50578 23.1811 7.25997 23.3363 7.24301C23.5178 7.22317 23.6984 7.19384 23.8754 7.15684C24.3423 7.0592 24.767 6.81399 25.085 6.45842C25.2056 6.32368 25.3213 6.18194 25.4292 6.03468Z" fill="white"/>
</svg>
