<svg width="104" height="20" viewBox="0 0 104 20" fill="none" xmlns="http://www.w3.org/2000/svg">
<path fill-rule="evenodd" clip-rule="evenodd" d="M6.32351 12.372C6.29012 12.3405 6.26013 12.3111 6.23366 12.2844C6.24324 12.2481 6.25453 12.2077 6.2677 12.1637C6.33093 11.9528 6.43621 11.6659 6.60315 11.3637C6.93666 10.76 7.50075 10.1193 8.45603 9.86329C9.41132 9.60732 10.2202 9.88021 10.8109 10.2363C11.1066 10.4145 11.3412 10.6103 11.5014 10.7613C11.5348 10.7928 11.5648 10.8222 11.5912 10.8489C11.5817 10.8852 11.5704 10.9256 11.5572 10.9696C11.494 11.1805 11.3887 11.4674 11.2217 11.7696C10.8882 12.3733 10.3241 13.014 9.36886 13.27C8.41358 13.526 7.60467 13.2531 7.014 12.897C6.71834 12.7188 6.48373 12.523 6.32351 12.372ZM8.30686 11.359C8.24189 11.1165 7.99264 10.9726 7.75016 11.0376C7.50767 11.1026 7.36377 11.3518 7.42874 11.5943C7.63359 12.3588 8.43048 12.7806 9.18366 12.5787C9.93683 12.3769 10.4161 11.6132 10.2112 10.8487C10.1463 10.6062 9.89701 10.4623 9.65452 10.5273C9.41204 10.5923 9.26814 10.8415 9.33311 11.084C9.40002 11.3337 9.24695 11.6206 8.94837 11.7006C8.64979 11.7806 8.37377 11.6087 8.30686 11.359Z" fill="#6F6F72"/>
<path fill-rule="evenodd" clip-rule="evenodd" d="M3.62315 5.50741C2.5547 5.7937 1.92064 6.89193 2.20693 7.96038L4.93482 18.141C5.22111 19.2095 6.31934 19.8435 7.38779 19.5572L14.056 17.7705C15.1244 17.4842 15.7585 16.386 15.4722 15.3175L12.7443 5.13689C12.458 4.06845 11.3598 3.43438 10.2913 3.72067L3.62315 5.50741ZM12.4396 10.43C12.4396 10.43 12.4398 10.4304 12.0864 10.7162C12.5354 10.787 12.5353 10.7874 12.5353 10.7874L12.5351 10.789L12.5346 10.7918L12.5332 10.8001C12.5321 10.8068 12.5305 10.8157 12.5284 10.8268C12.5243 10.849 12.5182 10.8797 12.5097 10.918C12.4929 10.9945 12.4667 11.1016 12.428 11.2306C12.3509 11.4878 12.2228 11.8375 12.0175 12.2092C11.6065 12.9531 10.8706 13.8088 9.60415 14.1481C8.33767 14.4875 7.27257 14.1144 6.54468 13.6756C6.18106 13.4564 5.89525 13.2176 5.69988 13.0334C5.60185 12.941 5.52563 12.8614 5.4728 12.8036C5.44636 12.7746 5.42571 12.751 5.41103 12.7339C5.4037 12.7254 5.39785 12.7184 5.39351 12.7132L5.38815 12.7067L5.38632 12.7045L5.38532 12.7032C5.38532 12.7032 5.38507 12.7029 5.7385 12.4171C5.2895 12.3463 5.28957 12.3459 5.28957 12.3459L5.28982 12.3443L5.29028 12.3415L5.29168 12.3332C5.29283 12.3265 5.29442 12.3175 5.29649 12.3065C5.30064 12.2843 5.30674 12.2535 5.31516 12.2153C5.33199 12.1387 5.35821 12.0317 5.39689 11.9027C5.47399 11.6455 5.6021 11.2957 5.80742 10.9241C6.21841 10.1802 6.95427 9.32452 8.22074 8.98517C9.48722 8.64582 10.5523 9.01891 11.2802 9.45767C11.6438 9.67686 11.9296 9.91567 12.125 10.0999C12.223 10.1923 12.2993 10.2719 12.3521 10.3297C12.3785 10.3587 12.3992 10.3822 12.4139 10.3994C12.4212 10.4079 12.427 10.4149 12.4314 10.4201L12.4367 10.4266L12.4386 10.4288L12.4393 10.4297L12.4396 10.43ZM12.0864 10.7162L12.4396 10.43C12.5204 10.53 12.5554 10.6604 12.5353 10.7874L12.0864 10.7162ZM5.28957 12.3459L5.7385 12.4171L5.38532 12.7032C5.30445 12.6032 5.26953 12.4729 5.28957 12.3459Z" fill="#6F6F72"/>
<path fill-rule="evenodd" clip-rule="evenodd" d="M7.84127 1.85911C8.12756 0.790662 9.22579 0.156598 10.2942 0.442888L16.9624 2.22962C18.0309 2.51591 18.6649 3.61414 18.3786 4.68259L16.6834 11.0093C16.5329 11.5708 15.7362 11.5708 15.5858 11.0093L13.8442 4.50967C13.4625 3.08507 11.9982 2.23965 10.5736 2.62137L8.36046 3.21437C7.93798 3.32757 7.55138 2.94098 7.66459 2.51849L7.84127 1.85911ZM16.186 3.77173C16.2437 3.693 16.3973 3.73417 16.4079 3.8312C16.4203 3.94464 16.4386 4.05752 16.4617 4.16812C16.5228 4.45996 16.676 4.72541 16.8983 4.92418C16.9825 4.99949 17.071 5.0718 17.1631 5.13925C17.2418 5.19694 17.2006 5.35057 17.1036 5.36118C16.9902 5.37357 16.8773 5.3919 16.7667 5.41503C16.4749 5.47605 16.2094 5.62931 16.0107 5.85154C15.9353 5.93576 15.863 6.02434 15.7956 6.11637C15.7379 6.1951 15.5842 6.15393 15.5736 6.05691C15.5612 5.94348 15.5429 5.83062 15.5198 5.72003C15.4588 5.42819 15.3055 5.16274 15.0833 4.96397C14.9991 4.88864 14.9105 4.81632 14.8184 4.74887C14.7397 4.69117 14.7809 4.53754 14.8779 4.52694C14.9913 4.51454 15.1042 4.49621 15.2148 4.47308C15.5066 4.41206 15.7721 4.2588 15.9709 4.03657C16.0462 3.95236 16.1185 3.86377 16.186 3.77173Z" fill="#6F6F72"/>
<path d="M24.885 17.145C21.915 17.145 19.98 14.6925 20.025 11.2275C19.98 7.73995 21.9375 5.30995 24.885 5.30995C26.595 5.30995 28.1025 6.14245 28.6875 7.51495V0.449951H31.005V16.875H28.755V14.76C28.26 16.245 26.6625 17.145 24.885 17.145ZM22.455 11.2275C22.455 13.7025 23.6025 15.1425 25.515 15.1425C27.225 15.1425 28.7325 13.995 28.7325 11.3175V11.1375C28.7325 8.43745 27.225 7.31245 25.515 7.31245C23.6475 7.31245 22.455 8.75245 22.455 11.2275Z" fill="#6F6F72"/>
<path d="M34.075 16.875V5.57995H36.3925V16.875H34.075ZM33.715 2.42995C33.715 1.57495 34.3675 0.967451 35.2225 0.967451C36.0775 0.967451 36.73 1.57495 36.73 2.42995C36.73 3.26245 36.0775 3.89245 35.2225 3.89245C34.3675 3.89245 33.715 3.26245 33.715 2.42995Z" fill="#6F6F72"/>
<path d="M42.1253 16.875L38.1203 5.57995H40.5728L43.5878 14.3325L46.6028 5.57995H48.8978L44.8478 16.875H42.1253Z" fill="#6F6F72"/>
<path d="M50.5993 16.875V5.57995H52.9168V16.875H50.5993ZM50.2393 2.42995C50.2393 1.57495 50.8918 0.967451 51.7468 0.967451C52.6018 0.967451 53.2543 1.57495 53.2543 2.42995C53.2543 3.26245 52.6018 3.89245 51.7468 3.89245C50.8918 3.89245 50.2393 3.26245 50.2393 2.42995Z" fill="#6F6F72"/>
<path d="M55.9721 16.875V5.57995H58.2896V7.55995C58.9196 6.14245 60.3821 5.39995 61.8896 5.39995C64.4321 5.39995 66.0071 7.04245 66.0071 9.56245V16.875H63.6446V10.08C63.6446 8.30245 62.7896 7.37995 61.0796 7.37995C59.5046 7.37995 58.2896 8.34745 58.2896 10.62V16.875H55.9721Z" fill="#6F6F72"/>
<path d="M79.615 16.56C79.165 16.965 78.5125 17.1 77.995 17.1C76.4875 17.1 75.5875 16.29 75.4525 15.03C74.8675 16.3125 73.5175 17.145 71.83 17.145C69.4225 17.145 67.96 15.8625 67.96 13.9275C67.96 11.9925 69.265 10.8225 71.875 10.35L75.385 9.71995V9.47245C75.385 8.09995 74.53 7.13245 72.91 7.13245C71.47 7.13245 70.525 7.94245 70.525 9.13495C70.525 9.29245 70.5475 9.51745 70.57 9.71995L68.41 10.035C68.3425 9.76495 68.2975 9.44995 68.2975 9.22495C68.2975 7.04245 70.03 5.26495 72.955 5.26495C76.06 5.26495 77.68 7.15495 77.68 9.44995V14.355C77.68 14.8275 77.905 15.1425 78.445 15.1425C78.625 15.1425 78.85 15.075 79.0075 14.94L79.615 16.56ZM70.3225 13.7025C70.3225 14.625 70.9975 15.3 72.235 15.3C74.26 15.3 75.385 13.725 75.385 12.06V11.3625L72.235 11.925C71.065 12.1275 70.3225 12.69 70.3225 13.7025Z" fill="#6F6F72"/>
<path d="M85.2817 17.1225C82.8742 17.1225 81.3667 15.7725 81.3667 13.2525V7.49245H79.3192V5.57995H81.3667V2.31745H83.7067V5.57995H88.3417V7.49245H83.7067V13.23C83.7067 14.3775 84.3142 15.0975 85.3267 15.0975C86.1817 15.0975 86.7217 14.58 86.7217 13.7925C86.7217 13.4325 86.6317 13.1175 86.4292 12.8025L88.2067 11.925C88.5667 12.4875 88.7917 13.1625 88.7917 13.86C88.7917 15.84 87.3967 17.1225 85.2817 17.1225Z" fill="#6F6F72"/>
<path d="M95.445 17.145C92.0025 17.145 90.045 14.805 90 11.2275C90 7.71745 92.3625 5.28745 95.355 5.28745C98.3925 5.28745 100.598 7.28995 100.598 10.755C100.598 11.1375 100.575 11.565 100.552 11.925H92.3175C92.43 13.995 93.7125 15.21 95.49 15.21C97.02 15.21 98.0775 14.4225 98.4825 12.915L100.395 13.5225C99.6075 16.0875 97.785 17.145 95.445 17.145ZM92.3175 10.1925H98.3925C98.325 8.36995 97.155 7.15495 95.3775 7.15495C93.7575 7.15495 92.475 8.32495 92.3175 10.1925Z" fill="#6F6F72"/>
</svg>
